HIERARCHY
ROOT Pelvis
{
	OFFSET 0.000000 0.000000 0.000000
	CHANNELS 6 Xposition Yposition Zposition Zrotation Yrotation Xrotation 
	JOINT Left_hip
	{
		OFFSET 0.068973 -0.091024 -0.007589
		CHANNELS 3 Zrotation Yrotation Xrotation
		JOINT Left_knee
		{
			OFFSET 0.036482 -0.391037 -0.003979
			CHANNELS 3 Zrotation Yrotation Xrotation
			JOINT Left_ankle
			{
				OFFSET -0.012239 -0.415469 -0.043440
				CHANNELS 3 Zrotation Yrotation Xrotation
				JOINT Left_foot
				{
					OFFSET 0.023806 -0.058558 0.118702
					CHANNELS 3 Zrotation Yrotation Xrotation
					End Site
					{
						OFFSET 0.000000 0.000000 0.000000
					}
				}
			}
		}
	}
	JOINT Right_hip
	{
		OFFSET -0.066552 -0.090468 -0.003847
		CHANNELS 3 Zrotation Yrotation Xrotation
		JOINT Right_knee
		{
			OFFSET -0.042435 -0.398340 -0.006400
			CHANNELS 3 Zrotation Yrotation Xrotation
			JOINT Right_ankle
			{
				OFFSET 0.014931 -0.415421 -0.041327
				CHANNELS 3 Zrotation Yrotation Xrotation
				JOINT Right_foot
				{
					OFFSET -0.021472 -0.049410 0.121889
					CHANNELS 3 Zrotation Yrotation Xrotation
					End Site
					{
						OFFSET 0.000000 0.000000 0.000000
					}
				}
			}
		}
	}
	JOINT Spine1
	{
		OFFSET -0.002904 0.105700 -0.022855
		CHANNELS 3 Zrotation Yrotation Xrotation
		JOINT Spine2
		{
			OFFSET 0.004179 0.132554 -0.002501
			CHANNELS 3 Zrotation Yrotation Xrotation
			JOINT Spine3
			{
				OFFSET 0.001987 0.049603 0.025988
				CHANNELS 3 Zrotation Yrotation Xrotation
				JOINT Neck
				{
					OFFSET -0.003935 0.211336 -0.045638
					CHANNELS 3 Zrotation Yrotation Xrotation
					JOINT Head
					{
						OFFSET 0.003906 0.065991 0.051018
						CHANNELS 3 Zrotation Yrotation Xrotation
						End Site
						{
							OFFSET 0.000000 0.000000 0.000000
						}
					}
				}
				JOINT Left_collar
				{
					OFFSET 0.072882 0.117751 -0.036270
					CHANNELS 3 Zrotation Yrotation Xrotation
					JOINT Left_shoulder
					{
						OFFSET 0.082118 0.032630 -0.005771
						CHANNELS 3 Zrotation Yrotation Xrotation
						JOINT Left_elbow
						{
							OFFSET 0.263305 -0.015144 -0.028095
							CHANNELS 3 Zrotation Yrotation Xrotation
							JOINT Left_wrist
							{
								OFFSET 0.250741 0.010115 -0.000759
								CHANNELS 3 Zrotation Yrotation Xrotation
								JOINT Left_palm
								{
									OFFSET 0.080683 -0.009989 -0.013613
									CHANNELS 3 Zrotation Yrotation Xrotation
									End Site
									{
										OFFSET 0.000000 0.000000 0.000000
									}
								}
							}
						}
					}
				}
				JOINT Right_collar
				{
					OFFSET -0.074811 0.116132 -0.040385
					CHANNELS 3 Zrotation Yrotation Xrotation
					JOINT Right_shoulder
					{
						OFFSET -0.085089 0.032943 -0.007484
						CHANNELS 3 Zrotation Yrotation Xrotation
						JOINT Right_elbow
						{
							OFFSET -0.254763 -0.014219 -0.020321
							CHANNELS 3 Zrotation Yrotation Xrotation
							JOINT Right_wrist
							{
								OFFSET -0.256597 0.009233 -0.005063
								CHANNELS 3 Zrotation Yrotation Xrotation
								JOINT Right_palm
								{
									OFFSET -0.080528 -0.007219 -0.010379
									CHANNELS 3 Zrotation Yrotation Xrotation
									End Site
									{
										OFFSET 0.000000 0.000000 0.000000
									}
								}
							}
						}
					}
				}
			}
		}
	}
}
MOTION
Frames: 5
Frame Time: 0.100000
-1.023957 0.048614 0.952944 177.579705 25.268472 -25.603796 9.923924 7.216619 -53.195656 -11.440766 9.060078 71.194488 -0.321600 11.244681 -2.561253 6.774737 9.359435 -10.183047 -16.358988 -9.291394 -52.236846 -2.810213 -5.574457 77.158987 5.255742 -12.599960 -6.164133 -22.226724 -0.910387 -5.475823 5.481810 -2.204546 51.893721 -0.321548 -5.228452 21.935720 3.543772 3.029885 -2.034463 -12.979781 -0.718834 32.110942 15.435669 2.687977 -25.251875 -27.600679 -32.079472 14.792661 -25.214670 -10.666599 -7.263466 16.136484 -27.148422 -9.381208 6.312779 -10.495541 6.611198 -18.160717 -9.639341 -10.016911 16.038102 33.882905 11.976157 36.299882 2.398991 -12.341838 -22.540787 46.798237 -10.413759 -7.209197 14.183547 4.041121 19.738950 6.068035 -5.673391 
-1.021625 0.076143 0.941926 177.195936 24.894906 -36.319827 10.765816 6.825324 -45.459972 -12.468441 7.874114 74.138621 -2.678723 12.944401 -2.457917 11.841284 7.325811 -13.034748 -16.844429 -7.577963 -44.441992 -2.462251 -4.157052 79.252235 4.234371 -12.416224 -4.641052 -21.789313 0.270272 -8.480255 4.697598 -1.860505 48.370744 -1.258857 -4.745146 28.600381 2.070594 2.911204 -2.736615 -11.083754 -1.517151 31.885942 13.620179 2.812663 -25.182015 -30.681520 -27.226951 15.130317 -29.619026 -12.115296 -7.154290 27.896613 -38.153512 -18.964554 12.211833 -11.700330 10.443235 -20.269199 -10.083171 -9.664008 19.227996 32.158561 14.314159 38.846231 5.320493 -9.461543 -17.178204 37.475133 -5.830847 -5.585798 13.590928 5.800509 18.551562 6.995304 -2.026130 
-1.019889 0.087955 0.937655 176.932113 24.802888 -44.236559 11.671430 6.880125 -38.722277 -12.279412 7.401686 75.309336 -3.806417 12.848779 -0.134271 12.923728 6.932472 -17.240940 -16.807003 -6.325558 -37.248860 -2.581435 -2.842451 79.331890 4.212136 -12.228192 -4.053131 -22.158488 1.431666 -9.408296 4.293100 -1.531716 43.623563 -1.614824 -4.274992 30.240268 1.110316 2.601043 -2.297419 -10.634946 -0.786640 29.761921 10.487715 2.142312 -23.942225 -30.671545 -23.093957 14.104746 -37.341702 -13.037540 -4.833520 42.725702 -50.292756 -28.334358 18.172757 -13.072748 11.818579 -22.580424 -10.835559 -9.142496 20.622255 27.929138 14.986615 44.493378 4.295127 -6.604076 -17.779012 36.218287 -2.437363 -6.885951 13.257821 8.361437 19.774668 8.722445 -0.780514 
-1.013724 0.100047 0.935132 175.809826 24.752730 -49.427046 13.643417 7.565802 -36.613681 -12.116193 7.661368 77.185887 -4.663244 11.648509 4.002789 13.106650 7.606884 -19.416270 -16.318216 -5.357713 -33.592070 -2.879317 -2.785494 80.268348 2.492216 -11.361966 -2.792205 -19.080346 0.396695 -9.086373 3.157880 -0.941524 37.940315 -0.588588 -4.487544 31.184826 0.945571 1.910577 -3.376151 -9.927371 1.617726 27.748916 7.612421 1.714469 -23.896691 -30.734334 -20.885621 13.712292 -36.883189 -11.987269 -1.270516 46.279012 -61.331678 -26.850883 25.142513 -15.254714 10.330551 -23.275444 -10.470569 -8.398346 22.385202 23.516049 13.928053 45.343246 0.656858 -4.400352 -20.696378 44.227158 -4.166928 -14.168334 14.671805 3.679016 22.404483 8.655574 0.183913 
-1.005686 0.111004 0.926292 176.010438 23.080587 -53.105947 16.165789 9.021096 -36.155501 -11.564508 7.446375 78.890124 -6.801125 11.017587 11.004383 13.624848 8.137743 -22.836452 -14.520432 -3.630918 -31.942700 -2.816994 -1.983788 80.568220 1.831941 -11.423780 -0.107502 -18.504288 -0.741120 -10.376681 1.564398 -0.872888 35.861303 -0.505953 -4.895458 30.764015 0.940537 1.418403 -3.990942 -9.709252 5.438792 25.155166 6.337319 3.477604 -24.624268 -28.623396 -21.731187 14.248532 -31.161635 -8.154861 1.001303 35.114159 -73.053251 -10.306637 30.697042 -18.405678 5.932598 -23.215255 -9.283507 -6.584188 21.423533 23.644843 13.066384 42.830396 0.640321 -2.521358 -21.622605 56.058242 -2.745669 -23.557603 16.771953 -1.952060 23.964502 6.723249 1.617355 
